<svg xmlns="http://www.w3.org/2000/svg" height="100%" viewBox="0 0 34 24" fill="none">
  <rect width="34" height="24" rx="4" fill="white"/>
  <rect x="0.5" y="0.5" width="33" height="23" rx="3.5" stroke="#121212" stroke-opacity="0.15"/>
  <path d="M18.6057 19.5017C22.6354 19.5209 26.3134 16.2153 26.3134 12.1938C26.3134 7.7961 22.6354 4.75635 18.6057 4.75781H15.1376C11.0597 4.75635 7.70312 7.797 7.70312 12.1938C7.70312 16.2161 11.0597 19.521 15.1376 19.5017H18.6057Z" fill="#0079BE"/>
  <path d="M15.155 5.36719C11.4286 5.36836 8.40908 8.3888 8.4082 12.1166C8.40908 15.8438 11.4286 18.8639 15.155 18.8651C18.8822 18.8639 21.9024 15.8438 21.9029 12.1166C21.9023 8.3888 18.8822 5.36836 15.155 5.36719ZM10.8784 12.1166C10.8819 10.295 12.0196 8.74163 13.6238 8.12434V16.108C12.0196 15.491 10.8819 13.9385 10.8784 12.1166ZM16.6855 16.1097V8.12408C18.2904 8.73987 19.4298 10.2941 19.4327 12.1166C19.4298 13.9397 18.2904 15.4928 16.6855 16.1097Z" fill="white"/>
</svg>